<svg width="266" height="55" viewBox="0 0 266 55" fill="none" xmlns="http://www.w3.org/2000/svg">
<path d="M5.0625 15.9414V22H1.60547V5.48828H13.7812V8.16016H5.0625V13.2695H13.5117V15.9414H5.0625ZM19.2773 22.2344C18.0508 22.2344 17.0938 21.9023 16.4062 21.2383C15.7188 20.5664 15.375 19.625 15.375 18.4141C15.375 17.1016 15.8008 16.1055 16.6523 15.4258C17.5117 14.7461 18.7539 14.3906 20.3789 14.3594L23.1094 14.3125V13.668C23.1094 12.8398 22.9648 12.2266 22.6758 11.8281C22.3867 11.4219 21.9141 11.2188 21.2578 11.2188C20.6484 11.2188 20.1992 11.3594 19.9102 11.6406C19.6289 11.9141 19.4531 12.3711 19.3828 13.0117L15.9492 12.8477C16.3789 10.3398 18.1953 9.08594 21.3984 9.08594C23 9.08594 24.2344 9.48047 25.1016 10.2695C25.9688 11.0586 26.4023 12.1797 26.4023 13.6328V18.25C26.4023 18.9609 26.4805 19.4531 26.6367 19.7266C26.8008 19.9922 27.0703 20.125 27.4453 20.125C27.6953 20.125 27.9375 20.1016 28.1719 20.0547V21.8359C27.7656 21.9375 27.418 22.0117 27.1289 22.0586C26.8398 22.1133 26.4844 22.1406 26.0625 22.1406C25.2344 22.1406 24.6211 21.9375 24.2227 21.5312C23.832 21.125 23.5977 20.5273 23.5195 19.7383H23.4492C22.9883 20.5664 22.4102 21.1914 21.7148 21.6133C21.0195 22.0273 20.207 22.2344 19.2773 22.2344ZM23.1094 16.1289L21.4219 16.1523C20.6484 16.1914 20.1055 16.2734 19.793 16.3984C19.4727 16.5391 19.2266 16.75 19.0547 17.0312C18.8906 17.3125 18.8086 17.6875 18.8086 18.1562C18.8086 18.7578 18.9453 19.207 19.2188 19.5039C19.5 19.793 19.8711 19.9375 20.332 19.9375C20.8477 19.9375 21.3203 19.7969 21.75 19.5156C22.1719 19.2344 22.5039 18.8477 22.7461 18.3555C22.9883 17.8555 23.1094 17.3281 23.1094 16.7734V16.1289ZM33 15.7773V22H29.707V12.2969C29.707 11.6016 29.6953 11.0234 29.6719 10.5625C29.6562 10.0938 29.6367 9.67969 29.6133 9.32031H32.7539C32.7695 9.39062 32.7852 9.54688 32.8008 9.78906C32.8164 10.0312 32.832 10.3047 32.8477 10.6094C32.8633 10.9062 32.875 11.1875 32.8828 11.4531C32.8984 11.7188 32.9062 11.9102 32.9062 12.0273H32.9531C33.2656 11.1523 33.5508 10.5234 33.8086 10.1406C34.0586 9.77344 34.3555 9.50391 34.6992 9.33203C35.043 9.16016 35.4727 9.07422 35.9883 9.07422C36.4102 9.07422 36.75 9.13281 37.0078 9.25V12.0039C36.4844 11.8867 36.0156 11.8281 35.6016 11.8281C34.7812 11.8281 34.1406 12.1602 33.6797 12.8242C33.2266 13.4883 33 14.4727 33 15.7773ZM42.3516 15.2031V22H39.0586V12.1562C39.0586 11.4766 39.0469 10.9219 39.0234 10.4922C39.0078 10.0547 38.9883 9.66406 38.9648 9.32031H42.1055C42.1211 9.41406 42.1406 9.63672 42.1641 9.98828C42.1875 10.332 42.207 10.6875 42.2227 11.0547C42.2461 11.4141 42.2578 11.6758 42.2578 11.8398H42.3047C42.7109 10.8711 43.2148 10.168 43.8164 9.73047C44.4258 9.29297 45.1523 9.07422 45.9961 9.07422C46.9648 9.07422 47.7422 9.30469 48.3281 9.76562C48.9219 10.2266 49.3203 10.918 49.5234 11.8398H49.5938C50.0234 10.8555 50.5391 10.1484 51.1406 9.71875C51.7422 9.28906 52.5078 9.07422 53.4375 9.07422C54.6719 9.07422 55.6133 9.49609 56.2617 10.3398C56.9102 11.1758 57.2344 12.3789 57.2344 13.9492V22H53.9648V14.8867C53.9648 13.7695 53.8047 12.9336 53.4844 12.3789C53.1641 11.8242 52.6836 11.5469 52.043 11.5469C51.4023 11.5469 50.8672 11.8594 50.4375 12.4844C50.0078 13.1016 49.793 13.957 49.793 15.0508V22H46.5234V14.8867C46.5234 13.7695 46.3633 12.9336 46.043 12.3789C45.7227 11.8242 45.2422 11.5469 44.6016 11.5469C43.9375 11.5469 43.3945 11.8867 42.9727 12.5664C42.5586 13.2461 42.3516 14.125 42.3516 15.2031ZM63.3398 22.2344C62.1133 22.2344 61.1562 21.9023 60.4688 21.2383C59.7812 20.5664 59.4375 19.625 59.4375 18.4141C59.4375 17.1016 59.8633 16.1055 60.7148 15.4258C61.5742 14.7461 62.8164 14.3906 64.4414 14.3594L67.1719 14.3125V13.668C67.1719 12.8398 67.0273 12.2266 66.7383 11.8281C66.4492 11.4219 65.9766 11.2188 65.3203 11.2188C64.7109 11.2188 64.2617 11.3594 63.9727 11.6406C63.6914 11.9141 63.5156 12.3711 63.4453 13.0117L60.0117 12.8477C60.4414 10.3398 62.2578 9.08594 65.4609 9.08594C67.0625 9.08594 68.2969 9.48047 69.1641 10.2695C70.0312 11.0586 70.4648 12.1797 70.4648 13.6328V18.25C70.4648 18.9609 70.543 19.4531 70.6992 19.7266C70.8633 19.9922 71.1328 20.125 71.5078 20.125C71.7578 20.125 72 20.1016 72.2344 20.0547V21.8359C71.8281 21.9375 71.4805 22.0117 71.1914 22.0586C70.9023 22.1133 70.5469 22.1406 70.125 22.1406C69.2969 22.1406 68.6836 21.9375 68.2852 21.5312C67.8945 21.125 67.6602 20.5273 67.582 19.7383H67.5117C67.0508 20.5664 66.4727 21.1914 65.7773 21.6133C65.082 22.0273 64.2695 22.2344 63.3398 22.2344ZM67.1719 16.1289L65.4844 16.1523C64.7109 16.1914 64.168 16.2734 63.8555 16.3984C63.5352 16.5391 63.2891 16.75 63.1172 17.0312C62.9531 17.3125 62.8711 17.6875 62.8711 18.1562C62.8711 18.7578 63.0078 19.207 63.2812 19.5039C63.5625 19.793 63.9336 19.9375 64.3945 19.9375C64.9102 19.9375 65.3828 19.7969 65.8125 19.5156C66.2344 19.2344 66.5664 18.8477 66.8086 18.3555C67.0508 17.8555 67.1719 17.3281 67.1719 16.7734V16.1289Z" fill="#EAAB00"/>
<path d="M82.7461 12.2266L80.4727 22H76.3711L72.1172 5.48828H75.6211L77.918 15.6016C78.0195 16.0312 78.1289 16.5273 78.2461 17.0898C78.3711 17.6523 78.4727 18.1992 78.5508 18.7305C78.6289 18.3633 78.6992 18.0078 78.7617 17.6641C78.832 17.3125 78.9023 16.9688 78.9727 16.6328C79.043 16.2891 79.1172 15.9492 79.1953 15.6133L81.5273 5.48828H85.3945L87.7031 15.25C87.7812 15.5781 87.875 16.0547 87.9844 16.6797C88.1016 17.3047 88.2109 17.9883 88.3125 18.7305C88.4141 18.2773 88.5039 17.8789 88.582 17.5352C88.668 17.1836 88.75 16.8359 88.8281 16.4922C88.9141 16.1406 89.0039 15.7422 89.0977 15.2969L91.2188 5.48828H94.7227L90.457 22H86.3555L84.1172 12.4492C83.9844 11.8867 83.8594 11.3125 83.7422 10.7266C83.625 10.1406 83.5195 9.53906 83.4258 8.92188C83.3633 9.25781 83.2852 9.65234 83.1914 10.1055C83.0977 10.5586 83.0078 10.9805 82.9219 11.3711C82.8438 11.7617 82.7852 12.0469 82.7461 12.2266ZM98.707 16.293C98.707 17.5273 98.9336 18.4609 99.3867 19.0938C99.8477 19.7188 100.5 20.0312 101.344 20.0312C101.922 20.0312 102.395 19.9062 102.762 19.6562C103.137 19.3984 103.398 19.0195 103.547 18.5195L106.652 18.7891C105.754 21.0859 103.93 22.2344 101.18 22.2344C99.2734 22.2344 97.8086 21.6719 96.7852 20.5469C95.7617 19.4141 95.25 17.7656 95.25 15.6016C95.25 13.5078 95.7695 11.8984 96.8086 10.7734C97.8477 9.64844 99.3203 9.08594 101.227 9.08594C103.047 9.08594 104.438 9.69141 105.398 10.9023C106.359 12.1055 106.84 13.8711 106.84 16.1992V16.293H98.707ZM103.652 14.2305C103.59 13.207 103.344 12.4414 102.914 11.9336C102.484 11.418 101.906 11.1602 101.18 11.1602C100.406 11.1602 99.8086 11.4297 99.3867 11.9688C98.9727 12.5078 98.7539 13.2617 98.7305 14.2305H103.652ZM121.348 15.6133C121.348 17.707 120.926 19.3359 120.082 20.5C119.246 21.6562 118.047 22.2344 116.484 22.2344C115.586 22.2344 114.809 22.0391 114.152 21.6484C113.496 21.2578 112.992 20.6953 112.641 19.9609H112.617C112.617 20.1406 112.609 20.375 112.594 20.6641C112.578 20.9531 112.559 21.2266 112.535 21.4844C112.512 21.7344 112.484 21.9062 112.453 22H109.254C109.285 21.6328 109.309 21.2109 109.324 20.7344C109.34 20.25 109.348 19.707 109.348 19.1055V4.60938H112.641V9.46094C112.641 9.80469 112.633 10.1484 112.617 10.4922C112.609 10.8359 112.602 11.1797 112.594 11.5234H112.641C113.008 10.7109 113.531 10.1016 114.211 9.69531C114.891 9.28906 115.719 9.08594 116.695 9.08594C118.195 9.08594 119.344 9.65625 120.141 10.7969C120.945 11.9297 121.348 13.5352 121.348 15.6133ZM117.914 15.6133C117.914 14.1758 117.703 13.1094 117.281 12.4141C116.859 11.7188 116.207 11.3711 115.324 11.3711C114.434 11.3711 113.754 11.7461 113.285 12.4961C112.824 13.2383 112.594 14.3125 112.594 15.7188C112.594 17.0625 112.82 18.1094 113.273 18.8594C113.734 19.6094 114.41 19.9844 115.301 19.9844C116.176 19.9844 116.828 19.6211 117.258 18.8945C117.695 18.168 117.914 17.0742 117.914 15.6133ZM133.922 4.60938V27.332H130.852V4.60938H133.922ZM150.902 22.2344C149.387 22.2344 148.105 21.9883 147.059 21.4961C146.012 20.9961 145.219 20.2695 144.68 19.3164C144.141 18.3555 143.871 17.1875 143.871 15.8125V5.48828H147.328V15.543C147.328 16.8477 147.637 17.8398 148.254 18.5195C148.879 19.1914 149.793 19.5273 150.996 19.5273C152.23 19.5273 153.18 19.1758 153.844 18.4727C154.508 17.7617 154.84 16.7461 154.84 15.4258V5.48828H158.297V15.6367C158.297 17.0273 158.004 18.2148 157.418 19.1992C156.84 20.1836 156 20.9375 154.898 21.4609C153.797 21.9766 152.465 22.2344 150.902 22.2344ZM168.832 8.16016V22H165.375V8.16016H160.043V5.48828H174.176V8.16016H168.832ZM189.633 10.7148C189.633 11.7852 189.387 12.7344 188.895 13.5625C188.41 14.3828 187.719 15.0273 186.82 15.4961C185.922 15.957 184.852 16.1875 183.609 16.1875H179.508V22H176.051V5.48828H183.469C185.445 5.48828 186.965 5.94531 188.027 6.85938C189.098 7.76562 189.633 9.05078 189.633 10.7148ZM186.152 10.7734C186.152 9.03906 185.129 8.17188 183.082 8.17188H179.508V13.5273H183.176C184.129 13.5273 184.863 13.293 185.379 12.8242C185.895 12.3477 186.152 11.6641 186.152 10.7734ZM204.375 19.3281V22H192.059V5.48828H195.516V19.3281H204.375Z" fill="white"/>
</svg>
